<svg id="alarm" xmlns="http://www.w3.org/2000/svg" width="21.001" height="21" viewBox="0 0 21.001 21">
  <g id="icon">
    <g id="alarm-2" data-name="alarm">
      <path id="bell" d="M80.8,46.01l-.221-.269c-.992-1.205-1.592-1.933-1.592-5.345a6.94,6.94,0,0,0-1.25-4.3,5.886,5.886,0,0,0-2.528-1.862.136.136,0,0,1-.037-.03,2.725,2.725,0,0,0-5.348,0,.141.141,0,0,1-.037.029C67.249,35.28,66.013,37.3,66.013,40.4c0,3.413-.6,4.141-1.592,5.345-.072.087-.146.176-.221.269a1.6,1.6,0,0,0-.21,1.7,1.685,1.685,0,0,0,1.548.954H79.47a1.682,1.682,0,0,0,1.542-.951A1.6,1.6,0,0,0,80.8,46.01Z" transform="translate(-63.835 -32)" fill="#596175"/>
      <path id="bell-2" data-name="bell" d="M188.439,434a3.857,3.857,0,0,0,3.312-1.755.15.15,0,0,0-.005-.164.194.194,0,0,0-.161-.081h-6.29a.2.2,0,0,0-.162.08.15.15,0,0,0-.005.164A3.857,3.857,0,0,0,188.439,434Z" transform="translate(-179.773 -414)" fill="#596175"/>
    </g>
    <g id="setting" transform="translate(8.462 8.461)">
      <g id="hidden" transform="translate(2.308 2.308)" fill="#596175" stroke="#707070" stroke-linecap="round" stroke-linejoin="round" stroke-width="1">
        <circle cx="3.846" cy="3.846" r="3.846" stroke="none"/>
        <circle cx="3.846" cy="3.846" r="3.346" fill="none"/>
      </g>
      <g id="setting-2" data-name="setting" transform="translate(-3.011 -3.011)" fill="#596175" stroke-linecap="round" stroke-linejoin="round">
        <path d="M 7.371258735656738 15.04900169372559 C 7.27927827835083 15.04900169372559 7.187588691711426 15.03682136535645 7.098758697509766 15.0128116607666 C 6.578976154327393 14.87789630889893 6.111666202545166 14.69089984893799 5.675013542175293 14.442458152771 C 5.367879390716553 14.27266025543213 5.183237075805664 13.94764518737793 5.192818641662598 13.5929012298584 L 5.225065231323242 12.62541389465332 C 5.159416198730469 12.56437873840332 5.095886707305908 12.50209045410156 5.034024715423584 12.43810844421387 L 4.073868274688721 12.50212097167969 L 4.070038318634033 12.50238132476807 L 4.066208362579346 12.50257110595703 C 4.049308300018311 12.50344181060791 4.032528400421143 12.50387096405029 4.015798568725586 12.50387096405029 C 3.671998500823975 12.50387096405029 3.364898443222046 12.32697105407715 3.194288492202759 12.03067111968994 C 2.909858465194702 11.53554153442383 2.701928615570068 11.04535102844238 2.576038599014282 10.57330131530762 L 2.575038433074951 10.56952095031738 L 2.574088573455811 10.56573104858398 C 2.48969841003418 10.22816181182861 2.594748497009277 9.872651100158691 2.848238468170166 9.637921333312988 L 3.551614999771118 8.984281539916992 C 3.547505855560303 8.895353317260742 3.54582405090332 8.806730270385742 3.546558618545532 8.717878341674805 L 2.829818487167358 8.083151817321777 C 2.564458608627319 7.846241474151611 2.453428506851196 7.488391399383545 2.538558483123779 7.147911548614502 C 2.66638970375061 6.631665229797363 2.863678216934204 6.13572883605957 3.124692916870117 5.674887657165527 C 3.289478302001953 5.376912593841553 3.600862741470337 5.192031383514404 3.938678503036499 5.192031383514404 C 3.953041076660156 5.192031383514404 3.967456817626953 5.192378520965576 3.981852769851685 5.193072319030762 L 4.941666603088379 5.225067138671875 C 5.002702236175537 5.159418106079102 5.064991474151611 5.095887660980225 5.128973007202148 5.0340256690979 L 5.064968585968018 4.07387113571167 L 5.06475830078125 4.070751190185547 L 5.06458854675293 4.067621231079102 C 5.045868396759033 3.721611261367798 5.217308521270752 3.392231464385986 5.51201868057251 3.208041429519653 L 5.516538619995117 3.20522141456604 L 5.521118640899658 3.202491283416748 C 5.970958709716797 2.93450140953064 6.478718280792236 2.718281269073486 6.989518642425537 2.577201366424561 L 6.995418548583984 2.575581312179565 L 7.001358509063721 2.57409143447876 C 7.077338695526123 2.555091381072998 7.155508518218994 2.545461416244507 7.233688354492188 2.545461416244507 C 7.497508525848389 2.545461416244507 7.7510085105896 2.655831336975098 7.929168701171875 2.84826135635376 L 8.582773208618164 3.551592111587524 C 8.657797813415527 3.548165798187256 8.733098983764648 3.546441316604614 8.808228492736816 3.546441316604614 C 8.821846008300781 3.546441316604614 8.835489273071289 3.546498537063599 8.849156379699707 3.546611785888672 L 9.481720924377441 2.832304239273071 C 9.65887451171875 2.627770662307739 9.916570663452148 2.510561466217041 10.18949890136719 2.510561466217041 C 10.26553821563721 2.510561466217041 10.34177875518799 2.519721269607544 10.41608810424805 2.537801265716553 C 10.93554496765137 2.666434764862061 11.43154811859131 2.863759756088257 11.89243125915527 3.12483549118042 C 12.19040870666504 3.290352582931519 12.38385486602783 3.632971286773682 12.37424850463867 3.978991270065308 L 12.35347843170166 4.599851608276367 L 12.34160327911377 4.954783916473389 C 12.39801502227783 5.009609699249268 12.46096992492676 5.071254730224609 12.51952171325684 5.129580974578857 L 13.4887580871582 5.064961433410645 L 13.49190807342529 5.064751148223877 L 13.49504852294922 5.064581394195557 C 13.5112886428833 5.063701152801514 13.52748870849609 5.063271522521973 13.54374885559082 5.063271522521973 C 13.87777805328369 5.063271522521973 14.20108890533447 5.248361587524414 14.36742877960205 5.534831523895264 C 14.50417804718018 5.769251346588135 14.62405872344971 6.0058913230896 14.72323894500732 6.237321376800537 C 14.82230186462402 6.465578556060791 14.90136814117432 6.686359405517578 14.97060966491699 6.928575992584229 C 15.04684448242188 7.145826816558838 15.06986618041992 7.476110935211182 14.78357887268066 7.857841491699219 L 14.76225852966309 7.886271476745605 L 14.73712825775146 7.911391258239746 C 14.72870063781738 7.91982889175415 14.7265567779541 7.921976566314697 14.00589656829834 8.591697692871094 C 14.00754451751709 8.673142433166504 14.00899600982666 8.761670112609863 14.01015853881836 8.840021133422852 L 14.73726844787598 9.483931541442871 C 15.00434875488281 9.716521263122559 15.11144828796387 10.09353160858154 15.01366806030273 10.46512126922607 C 14.88623809814453 10.96505165100098 14.69345855712891 11.44690132141113 14.4416389465332 11.89352130889893 L 14.44007873535156 11.89628124237061 L 14.43848896026611 11.89902114868164 C 14.27059841156006 12.18817329406738 13.94999980926514 12.37500095367432 13.62174129486084 12.37500095367432 C 13.6217212677002 12.37500095367432 13.62170886993408 12.37500095367432 13.62168884277344 12.37500095367432 C 13.60790920257568 12.37500095367432 13.59412956237793 12.37466430664062 13.58040618896484 12.37399768829346 L 13.00791835784912 12.3548412322998 L 12.6107759475708 12.34155464172363 C 12.59638690948486 12.35993957519531 12.58501529693604 12.37403774261475 12.57830810546875 12.38186168670654 L 12.56975841522217 12.39183139801025 L 12.56069850921631 12.40135097503662 C 12.5250415802002 12.43878936767578 12.4838171005249 12.48147773742676 12.43798732757568 12.52684879302979 L 12.46085834503174 12.86991119384766 L 12.50211811065674 13.48876094818115 L 12.50230884552002 13.49153137207031 L 12.5024585723877 13.49430179595947 C 12.52183818817139 13.84324741363525 12.32729816436768 14.20189476013184 12.02857398986816 14.3695707321167 C 11.56224918365479 14.64072036743164 11.09065914154053 14.84341526031494 10.62688827514648 14.97199153900146 C 10.5250186920166 15.00000095367432 10.42389869689941 15.01407146453857 10.32533836364746 15.01407146453857 C 10.06595897674561 15.01407146453857 9.82753849029541 14.91507148742676 9.65397834777832 14.73532104492188 L 9.654022216796875 14.73527908325195 C 9.634624481201172 14.71487426757812 9.544031143188477 14.61774349212646 8.983462333679199 14.01457786560059 C 8.913629531860352 14.01733779907227 8.841239929199219 14.01870155334473 8.765528678894043 14.01870155334473 C 8.750325202941895 14.01870155334473 8.735037803649902 14.01864624023438 8.71964168548584 14.01853656768799 L 8.083148956298828 14.73727130889893 C 7.911618709564209 14.93424129486084 7.651158332824707 15.04900169372559 7.371258735656738 15.04900169372559 Z M 8.783548355102539 7.063071250915527 C 7.834868431091309 7.063071250915527 7.063068389892578 7.834871292114258 7.063068389892578 8.783541679382324 C 7.063068389892578 9.732221603393555 7.834868431091309 10.50402164459229 8.783548355102539 10.50402164459229 C 9.732218742370605 10.50402164459229 10.50401878356934 9.732221603393555 10.50401878356934 8.783541679382324 C 10.50401878356934 7.834871292114258 9.732218742370605 7.063071250915527 8.783548355102539 7.063071250915527 Z" stroke="none"/>
        <path d="M 7.371260166168213 14.548996925354 C 7.496405124664307 14.548996925354 7.62227725982666 14.50516033172607 7.708828449249268 14.40578174591064 L 8.49931812286377 13.51315116882324 C 8.725807189941406 13.52202892303467 8.961178779602051 13.52203178405762 9.187668800354004 13.499831199646 C 9.187668800354004 13.499831199646 10.00479888916016 14.37913131713867 10.01367855072021 14.38802146911621 C 10.13802814483643 14.51681137084961 10.31567192077637 14.53901195526123 10.49330806732178 14.49016094207764 C 10.94183826446533 14.36581134796143 11.37704849243164 14.17041110992432 11.78117847442627 13.9350414276123 C 11.91884803771973 13.85954093933105 12.01210880279541 13.68191146850586 12.00322818756104 13.52203178405762 C 11.97657871246338 13.12235164642334 11.94993877410889 12.72266101837158 11.92328834533691 12.32297134399414 C 12.02098846435547 12.23860168457031 12.10980892181396 12.14978122711182 12.19862842559814 12.05652141571045 C 12.22526836395264 12.02543163299561 12.36294841766357 11.83447170257568 12.40735816955566 11.83447170257568 C 12.80703830718994 11.84779167175293 13.20227813720703 11.86111164093018 13.60196876525879 11.87444114685059 C 13.75740528106689 11.88332462310791 13.92615795135498 11.78562164306641 14.00609874725342 11.64795112609863 C 14.24146842956543 11.23050117492676 14.41465854644775 10.79085159301758 14.53012847900391 10.33787155151367 C 14.574538230896 10.16911125183105 14.54344844818115 9.978151321411133 14.4057788848877 9.858251571655273 L 13.51314830780029 9.067761421203613 C 13.51314830780029 9.018911361694336 13.50426864624023 8.423821449279785 13.49982833862305 8.379421234130859 C 13.49982833862305 8.379421234130859 14.3791389465332 7.562281608581543 14.38357830047607 7.557841300964355 C 14.49015808105469 7.415731430053711 14.56120872497559 7.255851268768311 14.49459838867188 7.082661151885986 C 14.43686866760254 6.878371238708496 14.36580848693848 6.669651508331299 14.26366806030273 6.434281349182129 C 14.17040824890137 6.216671466827393 14.05938816070557 5.999071598052979 13.93503856658936 5.785901546478271 C 13.85509967803955 5.648232460021973 13.6863431930542 5.554968357086182 13.52202892303467 5.563851356506348 C 13.12234878540039 5.590501308441162 12.72265815734863 5.617151260375977 12.32297897338867 5.643791198730469 C 12.2963285446167 5.608261585235596 11.86999893188477 5.190821170806885 11.83446884155273 5.159731388092041 C 11.84779834747314 4.760041236877441 11.86111831665039 4.364801406860352 11.87443828582764 3.965111255645752 C 11.87887859344482 3.805241346359253 11.78561878204346 3.636481285095215 11.64794826507568 3.560991287231445 C 11.21717834472656 3.316731452941895 10.76419830322266 3.139101266860962 10.29790878295898 3.02363133430481 C 10.13358879089355 2.983661890029907 9.964838027954102 3.036961317062378 9.858248710632324 3.161301374435425 L 9.067768096923828 4.05393123626709 C 8.836827278137207 4.040611743927002 8.605897903442383 4.045051097869873 8.379408836364746 4.067261219024658 L 7.562278747558594 3.187951326370239 C 7.451258182525635 3.068041801452637 7.282498359680176 3.019191026687622 7.122628688812256 3.059161424636841 C 6.656328678131104 3.187951326370239 6.19446849822998 3.38335132598877 5.777018547058105 3.632041454315186 C 5.634908676147461 3.720861434936523 5.554968357086182 3.876291275024414 5.563858509063721 4.040611267089844 L 5.64378833770752 5.239671230316162 C 5.466148376464844 5.395101547241211 5.306278705596924 5.559411525726318 5.159728527069092 5.732611179351807 L 3.960668563842773 5.692641258239746 C 3.800798892974854 5.683768749237061 3.640928745269775 5.772581100463867 3.560988426208496 5.919131278991699 C 3.316738605499268 6.34990119934082 3.139098405838013 6.802881240844727 3.02362847328186 7.269181251525879 C 2.9836585521698 7.429051399230957 3.036958456039429 7.597811222076416 3.161308526992798 7.708831310272217 L 4.053938388824463 8.499320983886719 C 4.040608406066895 8.730251312255859 4.045048713684082 8.956741333007812 4.067258358001709 9.187671661376953 L 3.18794846534729 10.00480175018311 C 3.068038463592529 10.11583137512207 3.019188404083252 10.28458118438721 3.059158563613892 10.44446182250977 C 3.183508396148682 10.91075134277344 3.387788534164429 11.36373138427734 3.627598524093628 11.78118133544922 C 3.711978435516357 11.92773056030273 3.867409706115723 12.01212501525879 4.040608406066895 12.00323104858398 L 5.239668369293213 11.92329120635986 C 5.395098686218262 12.10093116760254 5.559408664703369 12.26080131530762 5.732608318328857 12.40735149383545 L 5.692638397216797 13.60641098022461 C 5.688198566436768 13.77073097229004 5.772578716278076 13.92615127563477 5.91912841796875 14.00609111785889 C 6.332138538360596 14.24147129058838 6.767348289489746 14.41022109985352 7.229208469390869 14.53013134002686 C 7.274911880493164 14.54248332977295 7.323041439056396 14.548996925354 7.371260166168213 14.548996925354 M 8.783548355102539 6.563071250915527 C 10.00924873352051 6.563071250915527 11.00401878356934 7.557841300964355 11.00401878356934 8.783541679382324 C 11.00401878356934 10.00924110412598 10.00924873352051 11.00402164459229 8.783548355102539 11.00402164459229 C 7.557838439941406 11.00402164459229 6.563068389892578 10.00924110412598 6.563068389892578 8.783541679382324 C 6.563068389892578 7.557841300964355 7.557838439941406 6.563071250915527 8.783548355102539 6.563071250915527 M 7.371258735656738 15.54900169372559 C 7.237217426300049 15.54900169372559 7.103602409362793 15.53151798248291 6.974015712738037 15.49702644348145 C 6.408885478973389 15.34998798370361 5.903790950775146 15.14760303497314 5.430232048034668 14.87845993041992 C 4.960555553436279 14.61747932434082 4.678371906280518 14.12080478668213 4.69299840927124 13.57940101623535 C 4.693058490753174 13.57730102539062 4.69312858581543 13.5752010345459 4.693198680877686 13.57309150695801 L 4.713615894317627 12.96058750152588 L 4.107128620147705 13.00102138519287 C 4.102158546447754 13.00135135650635 4.097198486328125 13.00164127349854 4.092218399047852 13.00190162658691 C 3.544133186340332 13.03013515472412 3.030632972717285 12.74846172332764 2.760988473892212 12.28017139434814 C 2.454628467559814 11.74687099456787 2.230028629302979 11.21623134613037 2.092928409576416 10.7021312713623 C 2.091588497161865 10.69710159301758 2.090278625488281 10.69205093383789 2.089018583297729 10.68700122833252 C 1.96034848690033 10.1723518371582 2.121098518371582 9.629781723022461 2.508528470993042 9.271051406860352 L 2.951840162277222 8.859089851379395 L 2.498328447341919 8.45747184753418 C 2.092468500137329 8.095121383666992 1.923168540000916 7.547881603240967 2.053488492965698 7.026631355285645 C 2.19170355796814 6.468471527099609 2.405298233032227 5.931144714355469 2.687869071960449 5.431593894958496 C 2.951184988021851 4.956555843353271 3.460579633712769 4.668828964233398 4.00215482711792 4.693473815917969 L 4.606497764587402 4.713619232177734 L 4.566068649291992 4.107121467590332 C 4.565798282623291 4.102961540222168 4.565548419952393 4.098801136016846 4.565318584442139 4.094631195068359 C 4.536768436431885 3.566881418228149 4.797978401184082 3.064701318740845 5.247018337249756 2.784051418304443 C 5.25303840637207 2.78028130531311 5.259108543395996 2.776571273803711 5.265218734741211 2.77294135093689 C 5.752908706665039 2.482401371002197 6.303128719329834 2.248061418533325 6.856398582458496 2.095251321792603 C 6.864248275756836 2.093081474304199 6.872128486633301 2.09101128578186 6.88002872467041 2.089031457901001 C 6.995648384094238 2.060121297836304 7.114638328552246 2.045461416244507 7.233688354492188 2.045461416244507 C 7.636348724365234 2.045461416244507 8.023558616638184 2.214251279830933 8.296058654785156 2.508561372756958 L 8.707993507385254 2.951845407485962 L 9.105388641357422 2.503096342086792 C 9.377546310424805 2.189965724945068 9.772109031677246 2.010561466217041 10.18949890136719 2.010561466217041 C 10.30524826049805 2.010561466217041 10.42119884490967 2.024481296539307 10.53411865234375 2.051931381225586 C 11.09914302825928 2.191838979721069 11.63700771331787 2.405740022659302 12.13691806793213 2.688677549362183 C 12.59984302520752 2.946633577346802 12.88892078399658 3.457486867904663 12.87404823303223 3.992871284484863 C 12.87399864196777 3.994721412658691 12.873948097229 3.99657130241394 12.87388896942139 3.998421430587769 L 12.85354709625244 4.606198787689209 L 13.45549869537354 4.566071510314941 C 13.45973873138428 4.565781593322754 13.46398830413818 4.565531253814697 13.46823883056641 4.565301418304443 C 14.00166130065918 4.536472797393799 14.53307247161865 4.824398040771484 14.79980850219727 5.283731460571289 C 14.94637870788574 5.534981250762939 15.07556819915771 5.790131568908691 15.18281841278076 6.040371417999268 C 15.28828907012939 6.28339672088623 15.37338066101074 6.520220756530762 15.44792938232422 6.779236316680908 C 15.54465389251709 7.067574977874756 15.61222648620605 7.586308002471924 15.18358898162842 8.157831192016602 C 15.15518856048584 8.195691108703613 15.12414836883545 8.231481552124023 15.09068870544434 8.264951705932617 C 15.07675743103027 8.278874397277832 15.07400321960449 8.281628608703613 14.61524677276611 8.707992553710938 L 15.06700706481934 9.108059883117676 C 15.47765159606934 9.468745231628418 15.64261531829834 10.03554058074951 15.49797439575195 10.58943653106689 C 15.35871410369873 11.13410186767578 15.14985084533691 11.65548324584961 14.87717819213867 12.13909149169922 C 14.87509822845459 12.14278125762939 14.87299823760986 12.14645099639893 14.87086868286133 12.15012168884277 C 14.61515808105469 12.5904712677002 14.12484836578369 12.87500095367432 13.62173843383789 12.87500095367432 C 13.60124397277832 12.87500095367432 13.58082580566406 12.87453460693359 13.56048679351807 12.87360858917236 L 12.9608850479126 12.85354804992676 L 13.00100898742676 13.45550155639648 C 13.00125885009766 13.45919132232666 13.00148868560791 13.46288108825684 13.00168895721436 13.46657180786133 C 13.03164768218994 14.00602245330811 12.74115180969238 14.54081058502197 12.27741622924805 14.80326747894287 C 11.77493381500244 15.09519290924072 11.26460933685303 15.31404304504395 10.76046848297119 15.45381164550781 C 10.61434841156006 15.49399089813232 10.46863842010498 15.51407146453857 10.32533836364746 15.51407146453857 C 9.929068565368652 15.51407146453857 9.562898635864258 15.36084175109863 9.294268608093262 15.08260154724121 L 9.29432201385498 15.08255004882812 C 9.270830154418945 15.05788612365723 9.195415496826172 14.97701930999756 8.85910701751709 14.61522674560547 L 8.459113121032715 15.06690406799316 C 8.18992805480957 15.37337589263916 7.793793201446533 15.54900169372559 7.371258735656738 15.54900169372559 Z M 8.783548355102539 7.563071250915527 C 8.110578536987305 7.563071250915527 7.563068389892578 8.110570907592773 7.563068389892578 8.783541679382324 C 7.563068389892578 9.456511497497559 8.110578536987305 10.00402164459229 8.783548355102539 10.00402164459229 C 9.456518173217773 10.00402164459229 10.00401878356934 9.456511497497559 10.00401878356934 8.783541679382324 C 10.00401878356934 8.110570907592773 9.456518173217773 7.563071250915527 8.783548355102539 7.563071250915527 Z" stroke="none" fill="#18171d"/>
      </g>
    </g>
  </g>
  <rect id="영역" width="20" height="20" fill="#596175" opacity="0"/>
</svg>
