<svg xmlns="http://www.w3.org/2000/svg" width="20.5" height="20" viewBox="0 0 20.5 20">
  <g id="icon" transform="translate(-49.75 -435.001)">
    <path id="graph" d="M18,25.55a1.995,1.995,0,0,0-1.438,3.383l-3.653,7.31a1.642,1.642,0,0,0-.242-.023,2,2,0,0,0-.754.148L9.08,33.176a2,2,0,1,0-3.743-.961,1.985,1.985,0,0,0,.492,1.3L2.356,39.588A1.828,1.828,0,0,0,2,39.552a2.028,2.028,0,1,0,1.508.7L6.978,34.18a1.881,1.881,0,0,0,1.106-.113l2.836,3.192a2,2,0,1,0,3.184-.422l3.653-7.31A1.642,1.642,0,0,0,18,29.55a2,2,0,0,0,0-4Z" transform="translate(50 410.451)" fill="#fff" stroke="#fff" stroke-width="0.5"/>
    <rect id="영역" width="20" height="20" transform="translate(50 435.001)" fill="#70ccda" opacity="0"/>
  </g>
</svg>
