<svg xmlns="http://www.w3.org/2000/svg" width="20" height="20" viewBox="0 0 20 20">
  <g id="order" opacity="0.45">
    <path id="dots" d="M5.5,15.6a1.9,1.9,0,1,1,1.9,1.9A1.9,1.9,0,0,1,5.5,15.6ZM7.4,11.4A1.9,1.9,0,1,0,5.5,9.5,1.9,1.9,0,0,0,7.4,11.4Zm0-6.1A1.9,1.9,0,1,0,5.5,3.4,1.9,1.9,0,0,0,7.4,5.31ZM13.5,17.5a1.9,1.9,0,1,0-1.9-1.9A1.9,1.9,0,0,0,13.5,17.5Zm0-12.19a1.9,1.9,0,1,0-1.9-1.9A1.9,1.9,0,0,0,13.5,5.31Zm0,6.1a1.9,1.9,0,1,0-1.9-1.9A1.9,1.9,0,0,0,13.5,11.4Z" transform="translate(-0.5 0.5)" fill="#596175"/>
    <rect id="영역" width="20" height="20" fill="#596175" opacity="0"/>
  </g>
</svg>
