<svg id="icon" xmlns="http://www.w3.org/2000/svg" width="14" height="14" viewBox="0 0 14 14">
  <g id="date">
    <path id="패스_7436" data-name="패스 7436" d="M14.515,2.4H12.667V1.933a.933.933,0,0,0-1.867,0V2.4H5.2V1.933a.933.933,0,1,0-1.867,0V2.4H1.485A.485.485,0,0,0,1,2.885V4.715a.485.485,0,0,0,.485.485H14.515A.485.485,0,0,0,15,4.715V2.885a.485.485,0,0,0-.485-.485Z" transform="translate(-1 -1)" fill="#12abc2"/>
    <rect id="사각형_9106" data-name="사각형 9106" width="14" height="8.4" rx="1.337" transform="translate(0 5.6)" fill="#12abc2"/>
  </g>
  <rect id="영역" width="14" height="14" fill="#596175" opacity="0"/>
</svg>
