<svg xmlns="http://www.w3.org/2000/svg" width="18" height="18.005" viewBox="0 0 18 18.005">
  <g id="icon" transform="translate(-1785 -122)">
    <g id="edit" transform="translate(1782.987 119.992)">
      <path id="패스_7433" data-name="패스 7433" d="M20.485,2.811a2.7,2.7,0,0,0-3.845,0L14.91,4.567l3.818,3.818,1.729-1.729a2.7,2.7,0,0,0,.027-3.845Z" transform="translate(-1.282)" fill="#596175"/>
      <path id="패스_7434" data-name="패스 7434" d="M12.349,6.27,4.793,13.826a1.036,1.036,0,0,0-.171.234l-2.5,5.052A.9.9,0,0,0,3.3,20.346l5.052-2.5a1.036,1.036,0,0,0,.234-.171l7.556-7.556Z" transform="translate(0 -0.424)" fill="#596175"/>
      <path id="패스_7435" data-name="패스 7435" d="M20.006,21.8H11.9a.9.9,0,1,1,0-1.8h8.105a.9.9,0,1,1,0,1.8Z" transform="translate(-0.894 -1.789)" fill="#596175"/>
    </g>
    <rect id="영역" width="18" height="18" transform="translate(1785 122)" fill="#596175" opacity="0"/>
  </g>
</svg>
