<svg xmlns="http://www.w3.org/2000/svg" width="23.001" height="23" viewBox="0 0 23.001 23">
  <g id="alarm" transform="translate(1.5 1.5)">
    <g id="setting" transform="translate(0.462 0.461)">
      <circle id="hidden" cx="6.667" cy="6.667" r="6.667" transform="translate(2.539 2.539)" fill="#8c97b5"/>
      <g id="setting-2" data-name="setting" transform="translate(-3.472 -3.471)" fill="#8c97b5" stroke-linecap="round" stroke-linejoin="round">
        <path d="M 10.56912612915039 23.76056098937988 C 10.42119407653809 23.76056098937988 10.2737340927124 23.74114418029785 10.13079452514648 23.70284271240234 C 9.232970237731934 23.46945571899414 8.43320369720459 23.14929580688477 7.686211585998535 22.72426605224609 C 7.191636085510254 22.45124244689941 6.894345283508301 21.9278736114502 6.909786224365234 21.35647010803223 L 6.967433929443359 19.62688446044922 C 6.8279128074646 19.49873161315918 6.694042205810547 19.36746025085449 6.564387798309326 19.23166084289551 L 4.845876216888428 19.34623146057129 L 4.840146064758301 19.34661102294922 L 4.834405899047852 19.34691047668457 C 4.807106018066406 19.34831047058105 4.779975891113281 19.34900093078613 4.752965927124023 19.34900093078613 C 4.199275970458984 19.34900093078613 3.704766035079956 19.0642204284668 3.43013596534729 18.58723068237305 C 2.94222617149353 17.73791122436523 2.585705995559692 16.89768028259277 2.370126008987427 16.08926010131836 L 2.368626117706299 16.08361053466797 L 2.36720609664917 16.07793998718262 C 2.231235980987549 15.53414058685303 2.400326013565063 14.96155071258545 2.808475971221924 14.58363056182861 L 4.067600250244141 13.41353797912598 C 4.057722568511963 13.22568416595459 4.054169178009033 13.03892612457275 4.056902885437012 12.85128784179688 L 2.774616003036499 11.71574115753174 C 2.347445964813232 11.33433055877686 2.168616056442261 10.75825119018555 2.305606126785278 10.21029090881348 C 2.524670839309692 9.325657844543457 2.862632513046265 8.476039886474609 3.309690713882446 7.686627388000488 C 3.574560165405273 7.206459999084473 4.075705528259277 6.908450603485107 4.619306087493896 6.908450603485107 C 4.642691612243652 6.908450603485107 4.666148662567139 6.909026145935059 4.689570903778076 6.91016960144043 L 6.407292366027832 6.967435836791992 C 6.535442352294922 6.827916145324707 6.66670560836792 6.694051742553711 6.802506923675537 6.564393043518066 L 6.68794584274292 4.845870971679688 L 6.687635898590088 4.841190814971924 L 6.687386035919189 4.836500644683838 C 6.657226085662842 4.279140949249268 6.933455944061279 3.748560905456543 7.408286094665527 3.45180082321167 L 7.415056228637695 3.44757080078125 L 7.421916007995605 3.443490743637085 C 8.19278621673584 2.984230756759644 9.063006401062012 2.613680839538574 9.938486099243164 2.371880769729614 L 9.947345733642578 2.369430780410767 L 9.956255912780762 2.36720085144043 C 10.07871627807617 2.336590766906738 10.20468616485596 2.3210608959198 10.33066558837891 2.3210608959198 C 10.7555456161499 2.3210608959198 11.16372585296631 2.49872088432312 11.45054626464844 2.808480739593506 L 12.62056922912598 4.067522048950195 C 12.76659202575684 4.059920787811279 12.91340351104736 4.056090831756592 13.05979633331299 4.056090831756592 C 13.10067081451416 4.056090831756592 13.14170742034912 4.056390285491943 13.18281269073486 4.056987285614014 L 14.31527996063232 2.778196334838867 C 14.60014820098877 2.449148416519165 15.01478672027588 2.260560750961304 15.45408630371094 2.260560750961304 C 15.57660579681396 2.260560750961304 15.69946575164795 2.275330781936646 15.81925582885742 2.304470777511597 C 16.70894622802734 2.524781227111816 17.55900764465332 2.862990140914917 18.34874725341797 3.310373783111572 C 18.82843208312988 3.576580286026001 19.13986206054688 4.128434658050537 19.12436676025391 4.68596076965332 L 19.08893585205078 5.745280742645264 L 19.06610870361328 6.427470684051514 C 19.18466758728027 6.542195796966553 19.32514190673828 6.679306030273438 19.44910621643066 6.803375720977783 L 21.18059539794922 6.68794059753418 L 21.18530654907227 6.687630653381348 L 21.19001579284668 6.687370777130127 C 21.21606636047363 6.685970783233643 21.24204635620117 6.6852707862854 21.26812553405762 6.6852707862854 C 21.80633544921875 6.6852707862854 22.32715606689453 6.983320713043213 22.59496688842773 7.444591045379639 C 22.82963562011719 7.846840858459473 23.0352668762207 8.252711296081543 23.20535659790039 8.649580955505371 C 23.37559509277344 9.041843414306641 23.51128196716309 9.420926094055176 23.63014221191406 9.837197303771973 C 23.75340843200684 10.18623924255371 23.79073333740234 10.72001552581787 23.3238353729248 11.3425407409668 L 23.29185676574707 11.38518047332764 L 23.25416564941406 11.42287063598633 C 23.24155235290527 11.43548393249512 23.2371711730957 11.43986034393311 21.95147514343262 12.63467216491699 C 21.95511054992676 12.80640983581543 21.95828628540039 13.00413703918457 21.96065521240234 13.16817283630371 L 23.25733947753906 14.31647872924805 C 23.68936347961426 14.6944465637207 23.86033058166504 15.30013561248779 23.70404243469238 15.89875602722168 C 23.48405265808105 16.76100540161133 23.1539478302002 17.58582496643066 22.72284698486328 18.35041999816895 L 22.72051620483398 18.35456085205078 L 22.71812629699707 18.35867118835449 C 22.45176887512207 18.8173942565918 21.92336654663086 19.12561988830566 21.4033374786377 19.12561988830566 C 21.40327453613281 19.12561988830566 21.40329933166504 19.12561988830566 21.40323638916016 19.12561988830566 C 21.38099098205566 19.12561988830566 21.35870933532715 19.12507438659668 21.3365592956543 19.12397956848145 L 20.30858612060547 19.08959007263184 L 19.59545707702637 19.06573486328125 C 19.58695602416992 19.07661819458008 19.57973861694336 19.08591651916504 19.57445526123047 19.09272003173828 C 19.54366683959961 19.13238143920898 19.51932525634766 19.16283988952637 19.50604629516602 19.17834091186523 L 19.49324607849121 19.19327163696289 L 19.47967529296875 19.20750999450684 C 19.40886688232422 19.28185844421387 19.32524108886719 19.36828804016113 19.23150444030762 19.45982551574707 L 19.27437591552734 20.10293006896973 L 19.34622573852539 21.18060111999512 L 19.34650611877441 21.18475151062012 L 19.34673690795898 21.18889999389648 C 19.37795829772949 21.75109672546387 19.06487655639648 22.32866096496582 18.58421516418457 22.59810829162598 C 17.78414535522461 23.06342315673828 16.97559547424316 23.41105079650879 16.1810359954834 23.63131141662598 C 16.01479530334473 23.67703056335449 15.84992599487305 23.70001029968262 15.68953609466553 23.70001029968262 C 15.27188587188721 23.70001029968262 14.88842582702637 23.54107093811035 14.60978603363037 23.25247001647949 L 14.60984420776367 23.25241470336914 C 14.5781421661377 23.21905708312988 14.42171764373779 23.05137062072754 13.41241931915283 21.96536827087402 C 13.27651214599609 21.97162628173828 13.13501739501953 21.97471046447754 12.98590564727783 21.97471046447754 C 12.94249248504639 21.97471046447754 12.8986701965332 21.97445106506348 12.85424613952637 21.97392654418945 L 11.71776866912842 23.25725555419922 C 11.4378833770752 23.57715225219727 11.01941394805908 23.76056098937988 10.56912612915039 23.76056098937988 Z M 13.01709651947021 9.91826057434082 C 11.30838584899902 9.91826057434082 9.918255805969238 11.30839061737061 9.918255805969238 13.01709079742432 C 9.918255805969238 14.72579097747803 11.30838584899902 16.11591148376465 13.01709651947021 16.11591148376465 C 14.72579574584961 16.11591148376465 16.11591529846191 14.72579097747803 16.11591529846191 13.01709079742432 C 16.11591529846191 11.30839061737061 14.72579574584961 9.91826057434082 13.01709651947021 9.91826057434082 Z" stroke="none"/>
        <path d="M 10.56912612915039 23.01056289672852 C 10.78604316711426 23.01056289672852 11.00422382354736 22.93457984924316 11.15425586700439 22.76232147216797 L 12.52443599700928 21.21509170532227 C 12.91701507568359 21.23048973083496 13.32499694824219 21.23049163818359 13.7175760269165 21.19200134277344 C 13.7175760269165 21.19200134277344 15.13394641876221 22.71613121032715 15.14933586120605 22.73153114318848 C 15.36487483978271 22.95476913452148 15.672776222229 22.99324989318848 15.98068618774414 22.90857124328613 C 16.75814628601074 22.69305038452148 17.51251602172852 22.35434150695801 18.2130069732666 21.94637107849121 C 18.45163536071777 21.81551170349121 18.6132755279541 21.50761032104492 18.59788513183594 21.23049163818359 C 18.55169677734375 20.53770065307617 18.50551605224609 19.84492111206055 18.45932579040527 19.15212059020996 C 18.62867546081543 19.00586128234863 18.78262519836426 18.8519115447998 18.93658638000488 18.69025993347168 C 18.98276519775391 18.63638114929199 19.22140693664551 18.30538177490234 19.29837608337402 18.30538177490234 C 19.99116516113281 18.32847023010254 20.67625617980957 18.35156059265137 21.36904525756836 18.3746509552002 C 21.63850212097168 18.3900032043457 21.93097686767578 18.22069931030273 22.06953620910645 17.98207092285156 C 22.47750663757324 17.25849151611328 22.7777156829834 16.49643135070801 22.97785568237305 15.71126079559326 C 23.05483627319336 15.41875076293945 23.00094604492188 15.08776092529297 22.76232528686523 14.87992095947266 L 21.21509552001953 13.50974082946777 C 21.21509552001953 13.42506122589111 21.1996955871582 12.39357089996338 21.19199562072754 12.31660079956055 C 21.19199562072754 12.31660079956055 22.71613693237305 10.90024089813232 22.72383689880371 10.89254093170166 C 22.90857696533203 10.64622116088867 23.03173637390137 10.36909103393555 22.91628646850586 10.06889057159424 C 22.81620597839355 9.714791297912598 22.69304656982422 9.353000640869141 22.5159969329834 8.94502067565918 C 22.35434532165527 8.567840576171875 22.16191673278809 8.190650939941406 21.94636535644531 7.821170806884766 C 21.80781745910645 7.582541942596436 21.51529312133789 7.420892238616943 21.2304859161377 7.436280727386475 C 20.53770637512207 7.482470989227295 19.84490585327148 7.528660774230957 19.1521167755127 7.574841022491455 C 19.10593605041504 7.513260841369629 18.36695671081543 6.789690971374512 18.30537605285645 6.735800743103027 C 18.32847595214844 6.0430006980896 18.35156631469727 5.35792064666748 18.37465667724609 4.665130615234375 C 18.38235664367676 4.38801097869873 18.22069549560547 4.095500946044922 17.98207664489746 3.964640855789185 C 17.23540687561035 3.541270732879639 16.45024681091309 3.233370780944824 15.64198589324951 3.033220767974854 C 15.35717868804932 2.963941812515259 15.06466674804688 3.056320190429688 14.87992572784424 3.271850824356079 L 13.50973606109619 4.819080829620361 C 13.10945606231689 4.795980930328369 12.70917510986328 4.803681373596191 12.31659603118896 4.842170715332031 L 10.90023612976074 3.31804084777832 C 10.70778656005859 3.110201120376587 10.41528129577637 3.025531530380249 10.13815593719482 3.094810724258423 C 9.329906463623047 3.31804084777832 8.529356002807617 3.656730890274048 7.805776119232178 4.08781099319458 C 7.559445858001709 4.241760730743408 7.420876026153564 4.511170864105225 7.436285972595215 4.795980930328369 L 7.574836254119873 6.874361038208008 C 7.266926288604736 7.143780708312988 6.989816188812256 7.428590774536133 6.735795974731445 7.728800773620605 L 4.657425880432129 7.659510612487793 C 4.38031530380249 7.644124507904053 4.103195667266846 7.798070430755615 3.964636087417603 8.052101135253906 C 3.541265964508057 8.798770904541016 3.233366012573242 9.583930969238281 3.033215999603271 10.39219093322754 C 2.96393609046936 10.66931056976318 3.056316137313843 10.96181106567383 3.271846055984497 11.15426063537598 L 4.819086074829102 12.52444076538086 C 4.795986175537109 12.92471122741699 4.803686141967773 13.31729125976562 4.842175960540771 13.71758079528809 L 3.318036079406738 15.13394069671631 C 3.110196113586426 15.32639122009277 3.025516033172607 15.6188907623291 3.094805955886841 15.89602088928223 C 3.310336112976074 16.70427131652832 3.66442608833313 17.48943138122559 4.080106258392334 18.21301078796387 C 4.226356029510498 18.46703147888184 4.495770454406738 18.6132926940918 4.795986175537109 18.59789085388184 L 6.874356269836426 18.45933151245117 C 7.143775939941406 18.76724052429199 7.428586006164551 19.04435157775879 7.728796005249023 19.29837989807129 L 7.659515857696533 21.37674140930176 C 7.651815891265869 21.66157150268555 7.798076152801514 21.93096160888672 8.052096366882324 22.06954002380371 C 8.767986297607422 22.47751045227051 9.522346496582031 22.77002143859863 10.32290649414062 22.97786140441895 C 10.40212249755859 22.99927139282227 10.48554801940918 23.01056289672852 10.56912612915039 23.01056289672852 M 13.01709651947021 9.16826057434082 C 15.14164638519287 9.16826057434082 16.86591529846191 10.89254093170166 16.86591529846191 13.01709079742432 C 16.86591529846191 15.14165115356445 15.14164638519287 16.86591148376465 13.01709651947021 16.86591148376465 C 10.89253616333008 16.86591148376465 9.168255805969238 15.14165115356445 9.168255805969238 13.01709079742432 C 9.168255805969238 10.89254093170166 10.89253616333008 9.16826057434082 13.01709651947021 9.16826057434082 M 10.56912612915039 24.51056098937988 C 10.35690116882324 24.51056098937988 10.14536762237549 24.48286819458008 9.940237998962402 24.4282398223877 C 8.980012893676758 24.17847633361816 8.122491836547852 23.8349723815918 7.319062232971191 23.37826156616211 C 6.580698013305664 22.96845054626465 6.137047290802002 22.18759346008301 6.1600661277771 21.33620071411133 C 6.160146236419678 21.33306121826172 6.160245895385742 21.32991027832031 6.160346031188965 21.3267707824707 L 6.204328060150146 20.00733184814453 L 4.895766258239746 20.09457015991211 C 4.88813591003418 20.0950813293457 4.880496025085449 20.09553146362305 4.872866153717041 20.09592056274414 C 3.998737573623657 20.1407299041748 3.210010051727295 19.70806884765625 2.78014612197876 18.9614200592041 C 2.259376049041748 18.05491065979004 1.877846121788025 17.15400123596191 1.645456075668335 16.28251075744629 C 1.643446087837219 16.27497100830078 1.641496062278748 16.26742172241211 1.639606118202209 16.25986099243164 C 1.437226057052612 15.45043087005615 1.689856052398682 14.59727096557617 2.298906087875366 14.03331089019775 L 3.256022930145264 13.14387607574463 L 2.277385950088501 12.27723121643066 C 2.275856018066406 12.27587127685547 2.274316072463989 12.27450084686279 2.272786140441895 12.27313041687012 C 1.639456033706665 11.70762062072754 1.373226046562195 10.84748077392578 1.578006029129028 10.02839088439941 C 1.812715530395508 9.080523490905762 2.175329208374023 8.168497085571289 2.654972553253174 7.320757865905762 C 3.052346467971802 6.603443622589111 3.803634643554688 6.158450603485107 4.619306087493896 6.158450603485107 C 4.652467727661133 6.158450603485107 4.685957431793213 6.159215450286865 4.719144821166992 6.160732269287109 L 6.026839256286621 6.204329013824463 L 5.939606189727783 4.895750999450684 C 5.939196109771729 4.889510631561279 5.938816070556641 4.883270740509033 5.938476085662842 4.877020835876465 C 5.893566131591797 4.047060966491699 6.304466247558594 3.257240772247314 7.010796070098877 2.815800905227661 C 7.01982593536377 2.810160875320435 7.028905868530273 2.804610729217529 7.038055896759033 2.799170732498169 C 7.865715980529785 2.30608081817627 8.799626350402832 1.908340811729431 9.738825798034668 1.648940801620483 C 9.750606536865234 1.64569079875946 9.762435913085938 1.64258086681366 9.774295806884766 1.639610886573792 C 9.956215858459473 1.594120860099792 10.14340591430664 1.57106077671051 10.33066558837891 1.57106077671051 C 10.96377563476562 1.57106077671051 11.57253646850586 1.836350798606873 12.00084590911865 2.298900842666626 L 12.89030075073242 3.256026268005371 L 13.75130176544189 2.283777475357056 C 14.1786527633667 1.792196869850159 14.79836082458496 1.510560870170593 15.45408630371094 1.510560870170593 C 15.63621616363525 1.510560870170593 15.81868648529053 1.532480835914612 15.99642562866211 1.575700879096985 C 15.99846649169922 1.576190829277039 16.0005054473877 1.576690793037415 16.0025463104248 1.577200889587402 C 16.95416641235352 1.812847375869751 17.8665771484375 2.17567253112793 18.71471214294434 2.655709505081177 C 19.44277572631836 3.060715913772583 19.89748382568359 3.864314317703247 19.87407684326172 4.706790924072266 C 19.87399673461914 4.709560871124268 19.87391662597656 4.71233081817627 19.87382698059082 4.715100765228271 L 19.82995414733887 6.026319026947021 L 21.13069534301758 5.939600944519043 C 21.13690567016602 5.939190864562988 21.14311599731445 5.9388108253479 21.14932632446289 5.938480854034424 C 21.18893623352051 5.936330795288086 21.22845649719238 5.9352707862854 21.26812553405762 5.9352707862854 C 22.06864547729492 5.9352707862854 22.84405517578125 6.379900932312012 23.24357604980469 7.068010807037354 C 23.49254608154297 7.494768619537354 23.71187019348145 7.927762031555176 23.89389610290527 8.352229118347168 C 24.07543182373047 8.771031379699707 24.21967506408691 9.173055648803711 24.34604835510254 9.612856864929199 C 24.49847984313965 10.06446266174316 24.60610580444336 10.88285064697266 23.92383575439453 11.79254055023193 C 23.88124656677246 11.84932041168213 23.83468627929688 11.90301036834717 23.78449630737305 11.95320129394531 C 23.76118850708008 11.97650909423828 23.75787353515625 11.97982215881348 22.77814292907715 12.89030456542969 L 23.75266456604004 13.75331020355225 C 24.39886283874512 14.31966590881348 24.6580638885498 15.212965965271 24.42986869812012 16.08766746520996 C 24.19356727600098 17.01254653930664 23.83906555175781 17.89776802062988 23.37615585327148 18.71877098083496 C 23.373046875 18.72430038452148 23.36989593505859 18.72980117797852 23.3667163848877 18.73528099060059 C 22.94816780090332 19.45609855651855 22.12822914123535 19.91096687316895 21.30698394775391 19.87341690063477 L 20.00784492492676 19.82995223999023 L 20.09456634521484 21.13070106506348 C 20.09493637084961 21.13624000549316 20.09526634216309 21.14178085327148 20.0955753326416 21.14731025695801 C 20.14273834228516 21.99646377563477 19.68566131591797 22.83784294128418 18.95607948303223 23.24944496154785 C 18.10221290588379 23.74553489685059 17.23606491088867 24.11713027954102 16.38138580322266 24.35406112670898 C 16.14892578125 24.41800117492676 15.91713619232178 24.45001029968262 15.68953609466553 24.45001029968262 C 15.06656646728516 24.45001029968262 14.49147605895996 24.20972061157227 14.07021617889404 23.77341079711914 L 14.07030868530273 23.7733211517334 C 14.02881145477295 23.72973823547363 13.88052558898926 23.57065963745117 13.14389133453369 22.77811622619629 L 12.2803897857666 23.75319671630859 C 11.85810089111328 24.23464202880859 11.23485565185547 24.51056098937988 10.56912612915039 24.51056098937988 Z M 13.01709651947021 10.66826057434082 C 11.72194576263428 10.66826057434082 10.66825580596924 11.7219409942627 10.66825580596924 13.01709079742432 C 10.66825580596924 14.31223106384277 11.72194576263428 15.36591053009033 13.01709651947021 15.36591053009033 C 14.31223583221436 15.36591053009033 15.36591625213623 14.31223106384277 15.36591625213623 13.01709079742432 C 15.36591625213623 11.7219409942627 14.31223583221436 10.66826057434082 13.01709651947021 10.66826057434082 Z" stroke="none" fill="#18171d"/>
      </g>
    </g>
    <rect id="영역" width="20" height="20" fill="#8c97b5" opacity="0"/>
  </g>
</svg>
