<svg id="icon" xmlns="http://www.w3.org/2000/svg" width="42" height="42" viewBox="0 0 42 42">
  <circle id="box" cx="21" cy="21" r="21" fill="rgba(31,201,228,0.1)"/>
  <g id="icon-2" data-name="icon" transform="translate(9 9)">
    <g id="connection">
      <path id="패스_7" data-name="패스 7" d="M345.018,59.187a10.6,10.6,0,0,0-5.849-7.512l-.606,1.275a9.153,9.153,0,0,1,5.044,6.379,2.117,2.117,0,1,0,1.411-.143Z" transform="translate(-322.631 -49.243)" fill="#1fc9e4"/>
      <path id="패스_8" data-name="패스 8" d="M214.031,343.608a2.117,2.117,0,1,0,.143,1.411,10.6,10.6,0,0,0,7.512-5.849l-1.275-.606A9.153,9.153,0,0,1,214.031,343.608Z" transform="translate(-200.118 -322.631)" fill="#1fc9e4"/>
      <path id="패스_9" data-name="패스 9" d="M3.024,214.031a2.117,2.117,0,1,0-1.411.143,10.6,10.6,0,0,0,5.849,7.512l.606-1.275a9.153,9.153,0,0,1-5.044-6.379Z" transform="translate(0 -200.118)" fill="#1fc9e4"/>
      <path id="패스_10" data-name="패스 10" d="M59.329,3.024a2.117,2.117,0,1,0-.143-1.411,10.6,10.6,0,0,0-7.512,5.849l1.275.606a9.153,9.153,0,0,1,6.379-5.044Z" transform="translate(-49.242)" fill="#1fc9e4"/>
      <path id="패스_11" data-name="패스 11" d="M270,275.226A9.633,9.633,0,0,0,271.4,270H270Z" transform="translate(-257.294 -257.294)" fill="#1fc9e4"/>
      <path id="패스_12" data-name="패스 12" d="M211.7,275.226V270h-1.4A9.633,9.633,0,0,0,211.7,275.226Z" transform="translate(-200.407 -257.294)" fill="#1fc9e4"/>
      <path id="패스_13" data-name="패스 13" d="M211.7,128.939a9.634,9.634,0,0,0-1.4,5.226h1.4Z" transform="translate(-200.407 -122.871)" fill="#1fc9e4"/>
      <path id="패스_14" data-name="패스 14" d="M308.4,274.838c-.039.1-.079.2-.12.294A6.368,6.368,0,0,0,312.088,270h-2.8A15.192,15.192,0,0,1,308.4,274.838Z" transform="translate(-293.775 -257.295)" fill="#1fc9e4"/>
      <path id="패스_15" data-name="패스 15" d="M308.282,130.97q.062.143.121.294a15.191,15.191,0,0,1,.889,4.837h2.8A6.369,6.369,0,0,0,308.282,130.97Z" transform="translate(-293.775 -124.807)" fill="#1fc9e4"/>
      <path id="패스_16" data-name="패스 16" d="M270,128.939v5.226h1.4A9.633,9.633,0,0,0,270,128.939Z" transform="translate(-257.294 -122.871)" fill="#1fc9e4"/>
      <path id="패스_17" data-name="패스 17" d="M123.635,270h-2.8a6.369,6.369,0,0,0,3.806,5.131q-.062-.143-.12-.294A15.19,15.19,0,0,1,123.635,270Z" transform="translate(-115.151 -257.294)" fill="#1fc9e4"/>
      <path id="패스_18" data-name="패스 18" d="M120.838,136.1h2.8a15.19,15.19,0,0,1,.889-4.837q.059-.151.12-.294A6.369,6.369,0,0,0,120.838,136.1Z" transform="translate(-115.151 -124.807)" fill="#1fc9e4"/>
    </g>
    <rect id="영역" width="24" height="24" fill="#1fc9e4" opacity="0"/>
  </g>
</svg>
