<svg id="btn" xmlns="http://www.w3.org/2000/svg" width="20" height="20" viewBox="0 0 20 20">
  <g id="delete">
    <path id="패스_7442" data-name="패스 7442" d="M60.235,115.451v13.726a1.569,1.569,0,0,0,1.569,1.569H74.353a1.569,1.569,0,0,0,1.569-1.569V115.451Zm4.706,11.765a.392.392,0,0,1-.392.392h-.784a.392.392,0,0,1-.392-.392v-8.627a.392.392,0,0,1,.392-.392h.784a.392.392,0,0,1,.392.392Zm3.922,0a.392.392,0,0,1-.392.392h-.784a.392.392,0,0,1-.392-.392v-8.627a.392.392,0,0,1,.392-.392h.784a.392.392,0,0,1,.392.392v8.627Zm3.922,0a.392.392,0,0,1-.392.392h-.784a.392.392,0,0,1-.392-.392v-8.627a.392.392,0,0,1,.392-.392h.784a.392.392,0,0,1,.392.392Z" transform="translate(-57.882 -111.137)" fill="#596175"/>
    <path id="패스_7443" data-name="패스 7443" d="M166.9,5.02H162.2a1.569,1.569,0,0,0-1.569,1.569h7.843A1.569,1.569,0,0,0,166.9,5.02Z" transform="translate(-154.353 -5.02)" fill="#596175"/>
    <path id="패스_7444" data-name="패스 7444" d="M.392,65.255H19.608a.392.392,0,0,1,.392.392v.392a.392.392,0,0,1-.392.392H.392A.392.392,0,0,1,0,66.039v-.392a.392.392,0,0,1,.392-.392Z" transform="translate(0 -62.902)" fill="#596175"/>
  </g>
  <rect id="영역" width="20" height="20" fill="#fff" opacity="0"/>
</svg>
