<svg id="star" xmlns="http://www.w3.org/2000/svg" width="12" height="12" viewBox="0 0 12 12">
  <g id="icon" transform="translate(-338 -389)" opacity="0.45">
    <path id="star-2" data-name="star" d="M13.272,6.318a.972.972,0,0,0-.54-1.658l-2.895-.42a.141.141,0,0,1-.106-.077L8.438,1.538a.971.971,0,0,0-1.743,0L5.4,4.163a.14.14,0,0,1-.106.077l-2.9.421a.972.972,0,0,0-.538,1.657l2.1,2.042A.14.14,0,0,1,4,8.485L3.5,11.369a.972.972,0,0,0,1.41,1.025L7.5,11.031a.138.138,0,0,1,.131,0l2.591,1.362a.972.972,0,0,0,1.41-1.025l-.495-2.884a.141.141,0,0,1,.042-.125Z" transform="translate(336.435 388.004)" fill="#596175"/>
    <rect id="영역" width="12" height="12" transform="translate(338 389)" fill="#596175" opacity="0"/>
  </g>
</svg>
