<svg id="icon" xmlns="http://www.w3.org/2000/svg" width="42" height="42" viewBox="0 0 42 42">
  <circle id="box" cx="21" cy="21" r="21" fill="rgba(182,115,249,0.1)"/>
  <g id="icon-2" data-name="icon" transform="translate(11.001 11)">
    <path id="calendar" d="M20.975,10.239H3.305a.312.312,0,0,0-.3.32v8.468a2.911,2.911,0,0,0,.762,2.4,2.617,2.617,0,0,0,2.285.8H18.233a2.617,2.617,0,0,0,2.285-.8,2.911,2.911,0,0,0,.762-2.4V10.558A.312.312,0,0,0,20.975,10.239ZM8.1,19.026a1.066,1.066,0,0,1-.01-2.13H8.1a1.066,1.066,0,0,1,0,2.13Zm0-4.261a1.066,1.066,0,0,1-.01-2.13H8.1a1.066,1.066,0,0,1,0,2.13Zm4.062,4.261a1.066,1.066,0,0,1-.01-2.13h.01a1.066,1.066,0,0,1,0,2.13Zm0-4.261a1.066,1.066,0,0,1-.01-2.13h.01a1.066,1.066,0,0,1,0,2.13Zm4.062,4.261a1.066,1.066,0,0,1-.01-2.13h.01a1.066,1.066,0,0,1,0,2.13Zm0-4.261a1.066,1.066,0,0,1-.01-2.13h.01a1.066,1.066,0,0,1,0,2.13ZM21.28,7.842v.479a.312.312,0,0,1-.3.32H3.305a.312.312,0,0,1-.3-.32V7.842a2.911,2.911,0,0,1,.762-2.4,2.617,2.617,0,0,1,2.285-.8H7.316v-1.6a.763.763,0,1,1,1.523,0v1.6h6.6v-1.6a.763.763,0,1,1,1.523,0v1.6h1.269a2.617,2.617,0,0,1,2.285.8A2.911,2.911,0,0,1,21.28,7.842Z" transform="translate(-2.14 -2.25)" fill="#b673f9"/>
    <rect id="영역" width="20" height="20" transform="translate(-0.001)" fill="#12abc2" opacity="0"/>
  </g>
</svg>
