<svg id="icon" xmlns="http://www.w3.org/2000/svg" width="42" height="42" viewBox="0 0 42 42">
  <circle id="box" cx="21" cy="21" r="21" fill="rgba(96,122,255,0.1)"/>
  <g id="icon-2" data-name="icon" transform="translate(9 9)">
    <g id="patient">
      <path id="패스_11020" data-name="패스 11020" d="M9.5,66.913A2.173,2.173,0,1,0,7.288,64.74,2.193,2.193,0,0,0,9.5,66.913Z" transform="translate(-5.877 -50.458)" fill="#607aff"/>
      <path id="패스_11021" data-name="패스 11021" d="M3.66,89.174A3.869,3.869,0,0,0,0,93.214v1.541H6.524v-.843a6.236,6.236,0,0,1,.459-2.356l.008-.019-.008-.019A3.662,3.662,0,0,0,3.66,89.174Z" transform="translate(0 -71.915)" fill="#607aff"/>
      <path id="패스_11022" data-name="패스 11022" d="M96.1,66.913a2.173,2.173,0,1,0-2.209-2.172A2.193,2.193,0,0,0,96.1,66.913Z" transform="translate(-75.718 -50.458)" fill="#607aff"/>
      <path id="패스_11023" data-name="패스 11023" d="M91.215,89.174a3.662,3.662,0,0,0-3.322,2.343l-.008.019.008.019a6.236,6.236,0,0,1,.459,2.356v.843h6.524V93.214A3.869,3.869,0,0,0,91.215,89.174Z" transform="translate(-70.875 -71.915)" fill="#607aff"/>
      <path id="패스_11024" data-name="패스 11024" d="M42.525,87.332a4.9,4.9,0,0,0-4.674,5.094v2H47.2v-2a4.9,4.9,0,0,0-4.674-5.094Z" transform="translate(-30.525 -70.429)" fill="#607aff"/>
      <path id="패스_11025" data-name="패스 11025" d="M49.818,59.975a2.785,2.785,0,1,0-2.86-2.784A2.826,2.826,0,0,0,49.818,59.975Z" transform="translate(-37.869 -43.877)" fill="#607aff"/>
      <path id="패스_11026" data-name="패스 11026" d="M52.428,10.87V9.163h-.667V10.87a.4.4,0,0,1-.4.4H49.717v.7h1.645a.4.4,0,0,1,.4.4v1.707h.667V12.37a.4.4,0,0,1,.4-.4h1.645v-.7H52.826a.4.4,0,0,1-.4-.4Z" transform="translate(-40.094 -7.39)" fill="#607aff"/>
      <path id="패스_11027" data-name="패스 11027" d="M44.673,0a4.2,4.2,0,0,0-4.159,4.23,4.159,4.159,0,1,0,8.317,0A4.2,4.2,0,0,0,44.673,0Zm2.775,5.38H45.8V7.087a.4.4,0,0,1-.4.4H43.941a.4.4,0,0,1-.4-.4V5.38H41.9a.4.4,0,0,1-.4-.4V3.48a.4.4,0,0,1,.4-.4h1.645V1.374a.4.4,0,0,1,.4-.4H45.4a.4.4,0,0,1,.4.4V3.081h1.645a.4.4,0,0,1,.4.4v1.5a.4.4,0,0,1-.4.4Z" transform="translate(-32.673)" fill="#607aff"/>
    </g>
    <rect id="영역" width="24" height="24" fill="#12abc2" opacity="0"/>
  </g>
</svg>
