<svg xmlns="http://www.w3.org/2000/svg" width="18" height="18" viewBox="0 0 18 18">
  <g id="icon" transform="translate(-262.07 -58)">
    <g id="upload" transform="translate(262.07 58)">
      <path id="패스_7440" data-name="패스 7440" d="M105.176,29.372H107v5.4a.992.992,0,0,0,.992.992H110.7a.992.992,0,0,0,.992-.992v-5.4h1.821a.745.745,0,0,0,.527-1.272l-4.168-4.168a.747.747,0,0,0-1.054,0L104.649,28.1a.745.745,0,0,0,.527,1.272Z" transform="translate(-100.343 -23.713)" fill="#fff"/>
      <path id="패스_7441" data-name="패스 7441" d="M17.1,220.029a.9.9,0,0,0-.894.895v3.742a2.036,2.036,0,0,1-2.034,2.033H3.823a2.035,2.035,0,0,1-2.033-2.033v-3.742a.895.895,0,0,0-1.79,0v3.742a3.827,3.827,0,0,0,3.823,3.823H14.177A3.827,3.827,0,0,0,18,224.666v-3.742A.9.9,0,0,0,17.1,220.029Z" transform="translate(0 -212.346)" fill="#fff"/>
    </g>
    <rect id="영역" width="18" height="18" transform="translate(262.07 58)" fill="#fff" opacity="0"/>
  </g>
</svg>
