<svg xmlns="http://www.w3.org/2000/svg" width="18" height="18" viewBox="0 0 18 18">
  <g id="icon" transform="translate(-51 -436)">
    <path id="download" d="M8.128,12.895c.668.668,1.049.694,1.744,0l5.11-5.238c.48-.808.087-1.469-.872-1.469h-2.3V1.125A1.125,1.125,0,0,0,10.688,0H7.313A1.125,1.125,0,0,0,6.188,1.125V6.188h-2.3c-.959,0-1.352.661-.872,1.469Zm8.748,2.293H1.125A1.125,1.125,0,0,0,0,16.313v.562A1.125,1.125,0,0,0,1.125,18h15.75A1.125,1.125,0,0,0,18,16.875v-.562A1.125,1.125,0,0,0,16.875,15.188Z" transform="translate(51 436)" fill="#fff"/>
    <rect id="영역" width="18" height="18" transform="translate(51 436)" fill="#fff" opacity="0"/>
  </g>
</svg>
