<svg xmlns="http://www.w3.org/2000/svg" width="20" height="20" viewBox="0 0 20 20">
  <g id="icon" transform="translate(-47 -441)">
    <g id="users" transform="translate(47 404.16)">
      <path id="패스_7274" data-name="패스 7274" d="M400.041,273.32h-1.547a4.022,4.022,0,0,1,.244,1.383v5.846a1.727,1.727,0,0,1-.1.577H401.2a1.734,1.734,0,0,0,1.732-1.732v-3.187A2.89,2.89,0,0,0,400.041,273.32Z" transform="translate(-382.928 -225.323)" fill="#596175"/>
      <path id="패스_7275" data-name="패스 7275" d="M4.19,274.7a4.024,4.024,0,0,1,.244-1.383H2.887A2.89,2.89,0,0,0,0,276.208v3.187a1.734,1.734,0,0,0,1.732,1.732H4.289a1.724,1.724,0,0,1-.1-.578Z" transform="translate(0 -225.325)" fill="#596175"/>
      <path id="패스_7276" data-name="패스 7276" d="M143.252,234.815h-3.536a2.89,2.89,0,0,0-2.887,2.887v5.846a.577.577,0,0,0,.577.577h8.155a.577.577,0,0,0,.577-.577V237.7A2.89,2.89,0,0,0,143.252,234.815Z" transform="translate(-131.484 -188.322)" fill="#596175"/>
      <path id="패스_7277" data-name="패스 7277" d="M170.586,38.84a3.472,3.472,0,1,0,3.472,3.472A3.476,3.476,0,0,0,170.586,38.84Z" transform="translate(-160.586)" fill="#596175"/>
      <path id="패스_7278" data-name="패스 7278" d="M36.04,121.689a2.6,2.6,0,1,0,2.6,2.6A2.6,2.6,0,0,0,36.04,121.689Z" transform="translate(-32.137 -79.614)" fill="#596175"/>
      <path id="패스_7279" data-name="패스 7279" d="M348.2,121.689a2.6,2.6,0,1,0,2.6,2.6A2.6,2.6,0,0,0,348.2,121.689Z" transform="translate(-332.107 -79.614)" fill="#596175"/>
    </g>
    <rect id="영역" width="20" height="20" transform="translate(47 441)" fill="#596175" opacity="0"/>
  </g>
</svg>
