<svg xmlns="http://www.w3.org/2000/svg" width="18" height="18.597" viewBox="0 0 18 18.597">
  <g id="icon" transform="translate(4.879 1)">
    <g id="logout" transform="translate(-4.879 -1.374)">
      <path id="패스_7431" data-name="패스 7431" d="M12.608,5.288V2.254a.882.882,0,0,0-.88-.88H.88a.882.882,0,0,0-.88.88V14.686a.9.9,0,0,0,.469.777l6.685,3.46a.444.444,0,0,0,.645-.4V15.155h3.929a.882.882,0,0,0,.88-.88V9.467H10.849v3.489a.432.432,0,0,1-.44.44H7.814V5.934a.9.9,0,0,0-.469-.777L3.4,3.133h7.008a.432.432,0,0,1,.44.44V5.3h1.759Z" fill="#8c97b5"/>
      <path id="패스_7432" data-name="패스 7432" d="M67.162,16.619l2.859,2.859a.877.877,0,0,1,0,1.276l-2.859,2.859a.9.9,0,0,1-1.29.015.935.935,0,0,1,.029-1.29l1.29-1.276h-5a.867.867,0,0,1-.66-.293,1,1,0,0,1,.22-1.51.94.94,0,0,1,.44-.117h5s-1.275-1.276-1.29-1.276a.887.887,0,1,1,1.261-1.246Z" transform="translate(-52.295 -12.767)" fill="#8c97b5"/>
    </g>
    <rect id="영역" width="18" height="18" transform="translate(-4.879 -1)" fill="#8c97b5" opacity="0"/>
  </g>
</svg>
