<svg xmlns="http://www.w3.org/2000/svg" width="20" height="20" viewBox="0 0 20 20">
  <g id="icon" transform="translate(-51 -435)">
    <g id="data" transform="translate(-9 436)">
      <rect id="hidden" width="10" height="10" transform="translate(65 6)" fill="#fff"/>
      <g id="data-2" data-name="data">
        <path id="패스_7427" data-name="패스 7427" d="M62.846,20H75.154A1.806,1.806,0,0,0,77,18.242V5.859H72.692A1.806,1.806,0,0,1,70.846,4.1V0h-8A1.806,1.806,0,0,0,61,1.758V18.242A1.806,1.806,0,0,0,62.846,20ZM65.308,8.242h7.385a.587.587,0,1,1,0,1.172H65.308a.587.587,0,1,1,0-1.172Zm0,2.344h7.385a.587.587,0,1,1,0,1.172H65.308a.587.587,0,1,1,0-1.172Zm0,2.344h7.385a.587.587,0,1,1,0,1.172H65.308a.587.587,0,1,1,0-1.172Zm0,2.344h4.923a.587.587,0,1,1,0,1.172H65.308a.587.587,0,1,1,0-1.172Z" transform="translate(1 -1)" fill="#fff"/>
        <path id="패스_7428" data-name="패스 7428" d="M331.674,13.789H336l-5-5v4.326A.675.675,0,0,0,331.674,13.789Z" transform="translate(-258 -9.789)" fill="#fff"/>
      </g>
      <line id="line" x2="10" transform="translate(65 9)" fill="none" stroke="#18171d" stroke-linecap="round" stroke-width="1.5"/>
      <line id="line-2" data-name="line" x2="10" transform="translate(65 12)" fill="none" stroke="#18171d" stroke-linecap="round" stroke-width="1.5"/>
      <line id="line-3" data-name="line" x2="6" transform="translate(65 15)" fill="none" stroke="#18171d" stroke-linecap="round" stroke-width="1.5"/>
    </g>
    <rect id="영역" width="20" height="20" transform="translate(51 435)" fill="#fff" opacity="0"/>
  </g>
</svg>
