<svg id="icon" xmlns="http://www.w3.org/2000/svg" width="42" height="42" viewBox="0 0 42 42">
  <circle id="box" cx="21" cy="21" r="21" fill="rgba(182,115,249,0.1)"/>
  <g id="icon-2" data-name="icon" transform="translate(9 9)">
    <g id="approve" transform="translate(2.4 2.4)">
      <path id="패스_19" data-name="패스 19" d="M4.88,2A2.88,2.88,0,0,0,2,4.88V18.32A2.88,2.88,0,0,0,4.88,21.2h7.1A6.722,6.722,0,0,1,17.36,9V4.88A2.88,2.88,0,0,0,14.48,2Zm0,3.84a.96.96,0,0,1,.96-.96H11.6a.96.96,0,0,1,0,1.92H5.84A.96.96,0,0,1,4.88,5.84Zm.96,4.8a.96.96,0,1,0,0,1.92H7.76a.96.96,0,1,0,0-1.92ZM4.88,8.72a.96.96,0,0,1,.96-.96H9.68a.96.96,0,1,1,0,1.92H5.84A.96.96,0,0,1,4.88,8.72Z" transform="translate(-2 -2)" fill="#b673f9" fill-rule="evenodd"/>
      <path id="패스_20" data-name="패스 20" d="M15.76,10a5.76,5.76,0,1,0,5.76,5.76A5.76,5.76,0,0,0,15.76,10Zm2.657,4.935a.96.96,0,1,0-1.475-1.229l-1.727,2.072-.7-.7a.96.96,0,0,0-1.358,1.358l1.44,1.44a.96.96,0,0,0,1.416-.064Z" transform="translate(-2.32 -2.32)" fill="#b673f9" fill-rule="evenodd"/>
    </g>
    <rect id="영역" width="24" height="24" fill="#b673f9" opacity="0"/>
  </g>
</svg>
