<svg id="time" xmlns="http://www.w3.org/2000/svg" width="14" height="14" viewBox="0 0 14 14">
  <g id="icon">
    <path id="time-2" data-name="time" d="M7,14a7,7,0,1,1,7-7A7.008,7.008,0,0,1,7,14Zm3.212-4.609a.489.489,0,0,0-.1-.684L7.489,6.752V2.522a.489.489,0,1,0-.978,0V7a.489.489,0,0,0,.2.393l2.819,2.1a.489.489,0,0,0,.684-.1Z" transform="translate(0 0.003)" fill="#596175" fill-rule="evenodd"/>
    <rect id="영역" width="14" height="14" transform="translate(0 0)" fill="#596175" opacity="0"/>
  </g>
</svg>
