<svg xmlns="http://www.w3.org/2000/svg" width="12" height="12" viewBox="0 0 12 12">
  <g id="icon" transform="translate(-0.154 -0.154)">
    <g id="alarm" transform="translate(1.153 0.154)">
      <path id="alarm-2" data-name="alarm" d="M73.625,40.285l-.127-.159c-.572-.713-.919-1.143-.919-3.161a4.178,4.178,0,0,0-.721-2.545,3.4,3.4,0,0,0-1.458-1.1.078.078,0,0,1-.021-.018,1.565,1.565,0,0,0-3.085,0,.082.082,0,0,1-.021.017,3.546,3.546,0,0,0-2.18,3.647c0,2.019-.346,2.449-.919,3.161l-.127.159a.97.97,0,0,0,.772,1.572h8.037a.969.969,0,0,0,.77-1.571Z" transform="translate(-63.835 -32)" fill="#8c97b5"/>
      <path id="alarm-3" data-name="alarm" d="M186.951,433.286a2.075,2.075,0,0,0,1.833-1.129.11.11,0,0,0,0-.105.1.1,0,0,0-.089-.052H185.21a.1.1,0,0,0-.089.052.11.11,0,0,0,0,.105A2.075,2.075,0,0,0,186.951,433.286Z" transform="translate(-181.951 -421.286)" fill="#8c97b5"/>
    </g>
    <rect id="영역" width="12" height="12" transform="translate(0.154 0.154)" fill="#12abc2" opacity="0"/>
  </g>
</svg>
