<svg id="alarm" xmlns="http://www.w3.org/2000/svg" width="21" height="21" viewBox="0 0 21 21">
  <g id="icon">
    <g id="alarm-2" data-name="alarm">
      <path id="bell" d="M80.8,46.01l-.221-.269c-.992-1.205-1.592-1.933-1.592-5.345a6.94,6.94,0,0,0-1.25-4.3,5.886,5.886,0,0,0-2.528-1.862.135.135,0,0,1-.037-.03,2.725,2.725,0,0,0-5.348,0,.142.142,0,0,1-.036.029C67.249,35.28,66.013,37.3,66.013,40.4c0,3.413-.6,4.141-1.592,5.345-.072.087-.146.176-.221.269a1.6,1.6,0,0,0-.21,1.7,1.685,1.685,0,0,0,1.548.954H79.47a1.682,1.682,0,0,0,1.542-.951A1.6,1.6,0,0,0,80.8,46.01Z" transform="translate(-63.835 -32)" fill="#8c97b5"/>
      <path id="bell-2" data-name="bell" d="M188.439,434a3.858,3.858,0,0,0,3.312-1.755.151.151,0,0,0-.005-.164.194.194,0,0,0-.161-.081h-6.29a.194.194,0,0,0-.162.08.151.151,0,0,0-.005.165A3.857,3.857,0,0,0,188.439,434Z" transform="translate(-179.773 -414)" fill="#8c97b5"/>
    </g>
    <g id="setting" transform="translate(8.462 8.461)">
      <g id="hidden" transform="translate(2.308 2.308)" fill="#8c97b5" stroke="#707070" stroke-linecap="round" stroke-linejoin="round" stroke-width="1">
        <circle cx="3.846" cy="3.846" r="3.846" stroke="none"/>
        <circle cx="3.846" cy="3.846" r="3.346" fill="none"/>
      </g>
      <g id="setting-2" data-name="setting" transform="translate(-3.011 -3.011)" fill="#8c97b5" stroke-linecap="round" stroke-linejoin="round">
        <path d="M 7.371235370635986 15.04897117614746 C 7.2792649269104 15.04897117614746 7.187595367431641 15.0368013381958 7.098775386810303 15.01280117034912 C 6.578780174255371 14.87781810760498 6.111257076263428 14.69070911407471 5.674413681030273 14.44210815429688 C 5.367618083953857 14.27222442626953 5.183239936828613 13.94740676879883 5.19281530380249 13.59288120269775 L 5.225061416625977 12.62539863586426 C 5.159415245056152 12.56436729431152 5.095883369445801 12.50207710266113 5.034016609191895 12.43808841705322 L 4.073864936828613 12.50210094451904 L 4.070034980773926 12.50236129760742 L 4.066205024719238 12.50255107879639 C 4.049304962158203 12.50342082977295 4.032525062561035 12.50385093688965 4.015795230865479 12.50385093688965 C 3.671995162963867 12.50385093688965 3.364895105361938 12.3269510269165 3.194285154342651 12.0306510925293 C 2.909845113754272 11.53552055358887 2.701925277709961 11.04533100128174 2.576045274734497 10.57326126098633 L 2.575045108795166 10.5695104598999 L 2.574105262756348 10.56574058532715 C 2.48968505859375 10.22819042205811 2.594725131988525 9.872671127319336 2.848225116729736 9.637930870056152 L 3.551613569259644 8.984271049499512 C 3.547504663467407 8.895322799682617 3.545824766159058 8.806729316711426 3.54655909538269 8.717872619628906 L 2.829815149307251 8.083150863647461 C 2.564465045928955 7.846220970153809 2.453445196151733 7.488380908966064 2.538565158843994 7.147901058197021 C 2.666355133056641 6.631810665130615 2.863572120666504 6.135984420776367 3.124501705169678 5.67521858215332 C 3.289230108261108 5.377050876617432 3.600725173950195 5.192030906677246 3.938675165176392 5.192030906677246 C 3.953046321868896 5.192030906677246 3.967463254928589 5.192378044128418 3.981859445571899 5.193071842193604 L 4.941662788391113 5.225066661834717 C 5.002695560455322 5.159420967102051 5.064988136291504 5.095884799957275 5.128970146179199 5.034022331237793 L 5.06496524810791 4.073870658874512 L 5.064754962921143 4.070750713348389 L 5.064585208892822 4.067620754241943 C 5.045865058898926 3.721590995788574 5.217315196990967 3.392220973968506 5.512035369873047 3.208040952682495 L 5.516545295715332 3.205220937728882 L 5.521105289459229 3.202500820159912 C 5.970945358276367 2.934510946273804 6.478704929351807 2.718280792236328 6.989505290985107 2.577200889587402 L 6.995405197143555 2.575580835342407 L 7.001345157623291 2.574090957641602 C 7.077325344085693 2.55509090423584 7.155495166778564 2.545460939407349 7.233675003051758 2.545460939407349 C 7.497485160827637 2.545460939407349 7.750975131988525 2.655820846557617 7.929155349731445 2.848240852355957 L 8.582755088806152 3.551590204238892 C 8.657757759094238 3.548164844512939 8.733034133911133 3.546440839767456 8.808135032653809 3.546440839767456 C 8.821780204772949 3.546440839767456 8.835446357727051 3.54649806022644 8.849142074584961 3.546612024307251 L 9.482037544250488 2.831930637359619 C 9.659162521362305 2.627619981765747 9.916694641113281 2.510560989379883 10.18947505950928 2.510560989379883 C 10.26551532745361 2.510560989379883 10.34175491333008 2.519730806350708 10.41606521606445 2.537810802459717 C 10.93532466888428 2.666373014450073 11.43127059936523 2.863659858703613 11.89210796356201 3.124660730361938 C 12.19026184082031 3.290137767791748 12.38385486602783 3.632893323898315 12.37422561645508 3.979020833969116 L 12.35345554351807 4.599850654602051 L 12.34158039093018 4.95478343963623 C 12.39799118041992 5.009609222412109 12.46094608306885 5.071253776550293 12.51949787139893 5.129580020904541 L 12.88922500610352 5.104930877685547 L 13.48873519897461 5.064960956573486 L 13.49187469482422 5.064750671386719 L 13.49502563476562 5.064580917358398 C 13.51126480102539 5.063700675964355 13.52746486663818 5.063271045684814 13.54372501373291 5.063271045684814 C 13.8777551651001 5.063271045684814 14.20106506347656 5.248361110687256 14.36740493774414 5.534831047058105 C 14.50412559509277 5.769190788269043 14.62400531768799 6.005830764770508 14.72321510314941 6.237310886383057 C 14.82226943969727 6.46553897857666 14.90132808685303 6.686293601989746 14.97057819366455 6.928528785705566 C 15.04681587219238 7.14578914642334 15.06986045837402 7.476115703582764 14.78353500366211 7.857851028442383 L 14.76221561431885 7.886270999908447 L 14.73709487915039 7.911390781402588 C 14.72866725921631 7.919828414916992 14.72652530670166 7.921974658966064 14.00587272644043 8.591687202453613 C 14.00752067565918 8.673131942749023 14.00897216796875 8.761659622192383 14.01013469696045 8.840010643005371 L 14.73724555969238 9.483921051025391 C 15.0043249130249 9.716521263122559 15.11141490936279 10.09353065490723 15.01363563537598 10.46510124206543 C 14.8862247467041 10.96501064300537 14.693434715271 11.44686126708984 14.44160556793213 11.89350128173828 L 14.44005489349365 11.89625072479248 L 14.4384651184082 11.89898109436035 C 14.27059555053711 12.18813323974609 13.94998073577881 12.37498092651367 13.6217212677002 12.37498092651367 C 13.62170124053955 12.37498092651367 13.6217155456543 12.37498092651367 13.62169551849365 12.37498092651367 C 13.60799312591553 12.37498092651367 13.59430599212646 12.37464904785156 13.58066940307617 12.37398624420166 L 12.96720504760742 12.35346126556396 L 12.61075305938721 12.34153461456299 C 12.59633541107178 12.35995101928711 12.58493709564209 12.37407493591309 12.57822513580322 12.381911277771 L 12.56970500946045 12.39185047149658 L 12.56067562103271 12.40133094787598 C 12.5250186920166 12.43876934051514 12.48379611968994 12.48145580291748 12.43796348571777 12.52683067321777 L 12.46074485778809 12.86856079101562 L 12.50209522247314 13.48874092102051 L 12.50228500366211 13.49151134490967 L 12.50243473052979 13.49428081512451 C 12.52182102203369 13.84333419799805 12.32716941833496 14.20208740234375 12.02828884124756 14.36969661712646 C 11.5620002746582 14.64081573486328 11.09053897857666 14.84342002868652 10.62685489654541 14.97196102142334 C 10.52500534057617 14.99997043609619 10.42388534545898 15.01404094696045 10.32532501220703 15.01404094696045 C 10.06594562530518 15.01404094696045 9.82752513885498 14.91504096984863 9.653964996337891 14.73529052734375 L 9.654010772705078 14.7352466583252 C 9.63420581817627 14.71441078186035 9.542437553405762 14.61602401733398 8.98344898223877 14.01455783843994 C 8.913616180419922 14.01731777191162 8.841226577758789 14.01868057250977 8.765515327453613 14.01868057250977 C 8.750311851501465 14.01868057250977 8.735026359558105 14.01862621307373 8.719630241394043 14.01851558685303 L 8.083145141601562 14.73725128173828 C 7.911585330963135 14.93423080444336 7.651114940643311 15.04897117614746 7.371235370635986 15.04897117614746 Z M 8.783535003662109 7.063060760498047 C 7.834865093231201 7.063060760498047 7.063065052032471 7.834860801696777 7.063065052032471 8.783540725708008 C 7.063065052032471 9.732200622558594 7.834865093231201 10.50400066375732 8.783535003662109 10.50400066375732 C 9.732194900512695 10.50400066375732 10.50399494171143 9.732200622558594 10.50399494171143 8.783540725708008 C 10.50399494171143 7.834860801696777 9.732194900512695 7.063060760498047 8.783535003662109 7.063060760498047 Z" stroke="none"/>
        <path d="M 7.371233463287354 14.54897022247314 C 7.496378898620605 14.54897022247314 7.62226676940918 14.5051326751709 7.70882511138916 14.40576076507568 L 8.49930477142334 13.5131311416626 C 8.72579288482666 13.52200889587402 8.961164474487305 13.52200984954834 9.187655448913574 13.49981117248535 C 9.187655448913574 13.49981117248535 10.00478553771973 14.37911128997803 10.01366519927979 14.38799095153809 C 10.13801574707031 14.5167818069458 10.31565475463867 14.53898239135742 10.49328517913818 14.49013042449951 C 10.9418249130249 14.36579132080078 11.37703514099121 14.17038059234619 11.78115558624268 13.93502044677734 C 11.91882514953613 13.85952091217041 12.0120849609375 13.6818904876709 12.00320529937744 13.52201080322266 C 11.97655487060547 13.12233066558838 11.94991493225098 12.7226505279541 11.92326545715332 12.32296085357666 C 12.02096557617188 12.23858070373535 12.10978507995605 12.14976119995117 12.19860553741455 12.05650043487549 C 12.22525501251221 12.02541065216064 12.36292552947998 11.83445072174072 12.40732479095459 11.83445072174072 C 12.80701541900635 11.84778118133545 13.20225524902344 11.8611011505127 13.60194492340088 11.87442111968994 C 13.75736522674561 11.88329315185547 13.92613506317139 11.78560066223145 14.00606536865234 11.64793109893799 C 14.24143505096436 11.23049068450928 14.41463470458984 10.79083061218262 14.53009510040283 10.33785057067871 C 14.57450485229492 10.16910076141357 14.54341506958008 9.978140830993652 14.40575504302979 9.858241081237793 L 13.5131254196167 9.067750930786133 C 13.5131254196167 9.018900871276855 13.50424480438232 8.423810958862305 13.49980545043945 8.379410743713379 C 13.49980545043945 8.379410743713379 14.37910556793213 7.562280654907227 14.383544921875 7.557840824127197 C 14.49013519287109 7.415730953216553 14.56118488311768 7.255850791931152 14.49457550048828 7.082650661468506 C 14.43684482574463 6.878370761871338 14.36578559875488 6.669641017913818 14.26364517211914 6.434270858764648 C 14.17038536071777 6.216670989990234 14.05936527252197 5.999061107635498 13.93501472473145 5.785901069641113 C 13.85507583618164 5.648231506347656 13.68634128570557 5.554972648620605 13.52200508117676 5.563850879669189 C 13.12232494354248 5.590500831604004 12.72263526916504 5.617140769958496 12.32295513153076 5.643790721893311 C 12.29630470275879 5.608261108398438 11.86997509002686 5.190820693969727 11.83444499969482 5.159730911254883 C 11.84777545928955 4.760040760040283 11.8610954284668 4.364800930023193 11.87441539764404 3.965110778808594 C 11.87886524200439 3.805240869522095 11.78559494018555 3.636490821838379 11.64793491363525 3.560990810394287 C 11.21715545654297 3.316740989685059 10.76418495178223 3.139100790023804 10.29788494110107 3.023640871047974 C 10.13357639312744 2.98367166519165 9.964815139770508 3.036961078643799 9.858235359191895 3.161300897598267 L 9.067745208740234 4.053940773010254 C 8.83681583404541 4.040610790252686 8.60588550567627 4.045051097869873 8.379395484924316 4.0672607421875 L 7.562274932861328 3.187950849533081 C 7.451245307922363 3.068040609359741 7.282483100891113 3.019190788269043 7.122615337371826 3.059160947799683 C 6.656315326690674 3.187950849533081 6.194465160369873 3.383350849151611 5.777015209197998 3.63205099105835 C 5.634905338287354 3.720860958099365 5.554965019226074 3.876290798187256 5.563855171203613 4.040610790252686 L 5.643784999847412 5.239660739898682 C 5.466145038604736 5.395101070404053 5.306275367736816 5.55941104888916 5.159725189208984 5.732610702514648 L 3.960675239562988 5.692640781402588 C 3.800791501998901 5.683759689331055 3.640925168991089 5.772571086883545 3.560985088348389 5.919130802154541 C 3.31673526763916 6.349900722503662 3.139095067977905 6.802870750427246 3.023635149002075 7.269170761108398 C 2.983665227890015 7.429050922393799 3.036955118179321 7.597800731658936 3.16130518913269 7.708830833435059 L 4.053935050964355 8.499310493469238 C 4.040605068206787 8.730240821838379 4.045055389404297 8.956730842590332 4.067255020141602 9.187661170959473 L 3.187945127487183 10.00479125976562 C 3.068045139312744 10.11582088470459 3.019185066223145 10.28457069396973 3.059165239334106 10.4444408416748 C 3.183505058288574 10.91074085235596 3.387785196304321 11.36372089385986 3.627595186233521 11.78116130828857 C 3.71197509765625 11.92771148681641 3.867417812347412 12.0120792388916 4.040605068206787 12.00321102142334 L 5.239665031433105 11.92327117919922 C 5.395095348358154 12.10091114044189 5.559405326843262 12.26079082489014 5.73260498046875 12.40733051300049 L 5.692635059356689 13.60639095306396 C 5.68819522857666 13.77071094512939 5.772575378417969 13.92613124847412 5.919125080108643 14.00607109069824 C 6.332135200500488 14.24144077301025 6.767344951629639 14.41020107269287 7.229195117950439 14.53011131286621 C 7.274898529052734 14.54246044158936 7.323014259338379 14.54897022247314 7.371233463287354 14.54897022247314 M 8.783535003662109 6.563060760498047 C 10.0092248916626 6.563060760498047 11.00399494171143 7.557840824127197 11.00399494171143 8.783540725708008 C 11.00399494171143 10.0092306137085 10.0092248916626 11.00400066375732 8.783535003662109 11.00400066375732 C 7.557835102081299 11.00400066375732 6.563065052032471 10.0092306137085 6.563065052032471 8.783540725708008 C 6.563065052032471 7.557840824127197 7.557835102081299 6.563060760498047 8.783535003662109 6.563060760498047 M 7.371235370635986 15.54897117614746 C 7.237315654754639 15.54897117614746 7.103843212127686 15.53152275085449 6.974403858184814 15.49711227416992 C 6.409231662750244 15.35007667541504 5.904001235961914 15.14767074584961 5.430360794067383 14.87851238250732 C 4.960631847381592 14.61754512786865 4.678367614746094 14.12081718444824 4.692995071411133 13.57938098907471 C 4.693055152893066 13.57728099822998 4.693125247955322 13.57518100738525 4.693195343017578 13.57307052612305 L 4.71361255645752 12.96056747436523 L 4.107125282287598 13.00100135803223 C 4.102155208587646 13.0013313293457 4.097195148468018 13.00162124633789 4.092215061187744 13.00188064575195 C 3.544133186340332 13.03011512756348 3.030629634857178 12.74844169616699 2.760985136032104 12.28015041351318 C 2.454615116119385 11.74685096740723 2.230015277862549 11.21620082855225 2.092925071716309 10.70209121704102 C 2.09159517288208 10.6970911026001 2.090295076370239 10.69207096099854 2.08904504776001 10.68705081939697 C 1.960345149040222 10.17241096496582 2.121065139770508 9.629831314086914 2.508495092391968 9.271060943603516 L 2.951836824417114 8.859075546264648 L 2.498335123062134 8.457470893859863 C 2.092465162277222 8.095090866088867 1.923185110092163 7.547871112823486 2.053495168685913 7.026630878448486 C 2.191656351089478 6.468637943267822 2.40520191192627 5.931389808654785 2.687679529190063 5.431922912597656 C 2.950952768325806 4.956729412078857 3.460253953933716 4.668820381164551 4.00216817855835 4.693473339080811 L 4.606494903564453 4.713618278503418 L 4.566065311431885 4.107120990753174 C 4.565794944763184 4.10296106338501 4.565545082092285 4.098800659179688 4.565315246582031 4.094630718231201 C 4.536765098571777 3.566860914230347 4.797985076904297 3.06467080116272 5.247055053710938 2.784030914306641 C 5.25306510925293 2.78027081489563 5.259115219116211 2.776580810546875 5.265205383300781 2.772950887680054 C 5.752895355224609 2.482410907745361 6.303115367889404 2.248060941696167 6.856385231018066 2.095250844955444 C 6.864234924316406 2.093080997467041 6.872115135192871 2.091010808944702 6.88001537322998 2.089030981063843 C 6.995635032653809 2.060120820999146 7.114624977111816 2.045460939407349 7.233675003051758 2.045460939407349 C 7.636335372924805 2.045460939407349 8.023554801940918 2.214250802993774 8.296054840087891 2.5085608959198 L 8.707984924316406 2.951838970184326 L 9.105524063110352 2.502927780151367 C 9.377666473388672 2.189874649047852 9.772132873535156 2.010560989379883 10.18947505950928 2.010560989379883 C 10.30523490905762 2.010560989379883 10.4211950302124 2.024490833282471 10.53415489196777 2.051950931549072 C 11.09886741638184 2.191775798797607 11.63658142089844 2.405576467514038 12.1364221572876 2.68840503692627 C 12.59967422485352 2.946293830871582 12.88893413543701 3.457346200942993 12.87402534484863 3.992930889129639 C 12.87397480010986 3.994760990142822 12.87392520904541 3.996590852737427 12.87386512756348 3.99842095375061 L 12.85352325439453 4.606193542480469 L 13.45547485351562 4.566071033477783 C 13.45971488952637 4.565781116485596 13.46396541595459 4.565530776977539 13.4682149887085 4.565300941467285 C 14.00166511535645 4.536480903625488 14.53304958343506 4.824398040771484 14.79978561401367 5.283730983734131 C 14.94632530212402 5.534920692443848 15.075514793396 5.790060997009277 15.18278503417969 6.040340900421143 C 15.28825569152832 6.283366203308105 15.37335014343262 6.520190715789795 15.44790744781494 6.779223442077637 C 15.54464149475098 7.067561149597168 15.61222839355469 7.586310386657715 15.18352508544922 8.157871246337891 C 15.15513515472412 8.195711135864258 15.12410545349121 8.231500625610352 15.09065532684326 8.264950752258301 C 15.0767240524292 8.278874397277832 15.07397556304932 8.281622886657715 14.6152229309082 8.707983016967773 L 15.06749820709229 9.108505249023438 C 15.47715091705322 9.468655586242676 15.64204025268555 10.03395652770996 15.49861240386963 10.58680725097656 C 15.35935211181641 11.13241291046143 15.15026092529297 11.65468311309814 14.8771448135376 12.13908100128174 C 14.87508487701416 12.14273071289062 14.87299537658691 12.14637088775635 14.87089538574219 12.15000057220459 C 14.61521530151367 12.59041118621826 14.12488555908203 12.87498092651367 13.6217155456543 12.87498092651367 C 13.60131645202637 12.87498092651367 13.58095073699951 12.8745231628418 13.56066226959229 12.87360382080078 L 12.96086025238037 12.85352897644043 L 13.00098514556885 13.45548057556152 C 13.00123500823975 13.45917129516602 13.00146484375 13.46286106109619 13.00166511535645 13.46655082702637 C 13.0316333770752 14.00616836547852 12.74098587036133 14.54109954833984 12.27700138092041 14.80346870422363 C 11.77459907531738 15.09530639648438 11.26441192626953 15.31407642364502 10.76042556762695 15.45379066467285 C 10.61432552337646 15.49396133422852 10.46862506866455 15.51404094696045 10.32532501220703 15.51404094696045 C 9.929055213928223 15.51404094696045 9.562885284423828 15.36081123352051 9.294255256652832 15.08257102966309 L 9.294303894042969 15.08252429962158 C 9.270427703857422 15.05746364593506 9.194681167602539 14.97622871398926 8.859090805053711 14.61520481109619 L 8.460040092468262 15.06582260131836 C 8.190826416015625 15.37293243408203 7.794248580932617 15.54897117614746 7.371235370635986 15.54897117614746 Z M 8.783535003662109 7.563060760498047 C 8.110565185546875 7.563060760498047 7.563065052032471 8.110570907592773 7.563065052032471 8.783540725708008 C 7.563065052032471 9.456501007080078 8.110565185546875 10.00400066375732 8.783535003662109 10.00400066375732 C 9.45649528503418 10.00400066375732 10.00399494171143 9.456501007080078 10.00399494171143 8.783540725708008 C 10.00399494171143 8.110570907592773 9.45649528503418 7.563060760498047 8.783535003662109 7.563060760498047 Z" stroke="none" fill="#18171d"/>
      </g>
    </g>
  </g>
  <rect id="영역" width="20" height="20" fill="#8c97b5" opacity="0"/>
</svg>
