<svg id="icon" xmlns="http://www.w3.org/2000/svg" width="42" height="42" viewBox="0 0 42 42">
  <circle id="box" cx="21" cy="21" r="21" fill="rgba(166,180,255,0.1)"/>
  <g id="icon-2" data-name="icon" transform="translate(9 9)">
    <g id="log" transform="translate(2.4 4)">
      <path id="패스_21" data-name="패스 21" d="M7.837,55.915a.332.332,0,0,1-.025-.169c.008-.045-.02-.083-.086-.112s-.1-.052-.1-.069-.047-.029-.141-.037l-.141-.013H3.526a1.867,1.867,0,0,1-1.384-.588,1.946,1.946,0,0,1-.575-1.412v-8.8A1.946,1.946,0,0,1,2.143,43.3a1.868,1.868,0,0,1,1.384-.588H7.445a.365.365,0,0,0,.251-.081.418.418,0,0,0,.122-.244,2.144,2.144,0,0,0,.037-.294,3.174,3.174,0,0,0-.006-.331q-.012-.2-.012-.25a.389.389,0,0,0-.116-.281.373.373,0,0,0-.275-.119H3.526a3.363,3.363,0,0,0-2.492,1.056A3.5,3.5,0,0,0,0,44.715v8.8a3.5,3.5,0,0,0,1.035,2.544,3.362,3.362,0,0,0,2.492,1.057H7.445a.367.367,0,0,0,.251-.081.418.418,0,0,0,.122-.244,2.15,2.15,0,0,0,.037-.294,3.173,3.173,0,0,0-.006-.331Q7.837,55.965,7.837,55.915Z" transform="translate(0 -41.115)" fill="#a6b4ff"/>
      <path id="패스_22" data-name="패스 22" d="M123.9,57.284l-6.661-6.8a.758.758,0,0,0-1.1,0,.778.778,0,0,0-.233.563v3.6h-5.486a.747.747,0,0,0-.551.237.777.777,0,0,0-.233.563v4.8a.777.777,0,0,0,.233.562.748.748,0,0,0,.551.238H115.9v3.6a.776.776,0,0,0,.233.562.758.758,0,0,0,1.1,0l6.661-6.8a.8.8,0,0,0,0-1.125Z" transform="translate(-104.931 -49.846)" fill="#a6b4ff"/>
    </g>
    <rect id="영역" width="24" height="24" fill="#a6b4ff" opacity="0"/>
  </g>
</svg>
